<svg width="32" height="32" viewBox="0 0 32 32" fill="none" xmlns="http://www.w3.org/2000/svg">
<path fill-rule="evenodd" clip-rule="evenodd" d="M16.3299 2C16.7106 1.99903 17.0589 2.21437 17.2282 2.55544L21.1237 10.4045L29.811 11.6712C30.1871 11.726 30.4997 11.9894 30.6175 12.3508C30.7353 12.7123 30.638 13.1092 30.3664 13.3752L24.048 19.5631L25.5487 28.1614C25.6145 28.5379 25.4598 28.9189 25.1503 29.1432C24.8408 29.3674 24.4306 29.3956 24.0933 29.2158L16.3325 25.0793L8.5734 29.2158C8.23592 29.3957 7.82539 29.3674 7.51581 29.1428C7.20624 28.9183 7.05184 28.5368 7.11807 28.1602L8.62973 19.5631L2.30096 13.3758C2.02893 13.1098 1.93137 12.7126 2.04925 12.3509C2.16713 11.9892 2.48003 11.7257 2.85652 11.6711L11.5913 10.4045L15.4344 2.56004C15.6019 2.21811 15.9491 2.00098 16.3299 2Z" fill="#AEB0B6"/>
</svg>
